<?xml version="1.0" encoding="utf-8"?>
<!-- Generator: Adobe Illustrator 21.0.0, SVG Export Plug-In . SVG Version: 6.00 Build 0)  -->
<svg version="1.1" id="Zirafa" xmlns="http://www.w3.org/2000/svg" xmlns:xlink="http://www.w3.org/1999/xlink" x="0px" y="0px"
	 viewBox="0 0 1366 768" style="enable-background:new 0 0 1366 768;" xml:space="preserve">
<style type="text/css">
	.st0{fill:#0A0A0A;}
	.st1{fill:#977559;stroke:#0A0A0A;stroke-miterlimit:10;}
	.st2{fill:none;stroke:#0A0A0A;stroke-miterlimit:10;}
	.st3{stroke:#0A0A0A;stroke-miterlimit:10;}
	.st4{fill:#7B381B;stroke:#7B381B;stroke-miterlimit:10;}
	.st5{fill:#7B381B;}
	.st6{fill:none;stroke:#7B381B;stroke-miterlimit:10;}
	.st7{stroke:#000000;stroke-miterlimit:10;}
</style>
<g>
	<g>
		<path d="M564.8,507.9c-0.2,0.2-0.2,0.5-0.4,1c-0.2,0.5-0.4,1.2-0.5,1.9c-0.4,1.7-0.6,3.4-0.8,5.1c-0.1,0.9-0.1,1.7-0.2,2.6
			c0,0.9-0.1,1.8-0.1,2.7c-0.1,1.8,0,3.6-0.1,5.5c-0.1,1.9-0.1,3.7,0,5.2c0.1,1.5,0.3,2.7,0.7,3.3c0.2,0.3,0.4,0.5,0.5,0.7
			c0.2,0.2,0.5,0.6,1,1c1,1,2.7,2.4,4.6,4.8c0.5,0.6,0.9,1.3,1.3,2.1c0.4,0.8,0.7,1.6,0.9,2.1l0.4,1.1c0.1,0.2,0.1,0.2,0,0.2
			c0,0-0.1,0,0.1,0.2c0.2,0.2,0.5,0.4,1,0.7c0.5,0.3,1.1,0.5,1.8,0.8c0.7,0.3,1.6,0.5,2.4,0.8c1.7,0.5,3.4,1,5.1,1.4
			c1.7,0.4,3.4,0.7,5.2,0.9c0.9,0.1,1.7,0.3,2.6,0.2c0.9-0.1,1.8-0.5,2.7-0.6c0.4-0.1,0.9,0,1.3,0.1c0.5,0.1,0.7,0.3,1.1,0.4
			c0.6,0.3,1.2,0.6,1.8,1c0.6,0.4,1,0.7,1.6,1.1c0.5,0.4,1.1,0.8,2.2,0.7l3.7,1.5c-0.5,1.3-1.5,2.4-2.6,3.1c-1.1,0.7-2.2,1-3.3,1.3
			c-2.2,0.5-4.3,0.3-6.2,0.2c-3.9-0.2-7.8-0.6-11.6-1.4c-1.9-0.4-3.8-0.8-5.7-1.3c-1.9-0.5-3.8-1-5.8-1.8c-1.9-0.9-4-2.1-5.3-4.2
			c-0.7-1-1-2.1-1.4-2.9c-0.3-0.8-0.6-1.4-1.1-2.1c-0.9-1.3-2.3-2.5-3.7-4c-0.7-0.7-1.4-1.6-2-2.5c-0.6-1-1.1-2-1.4-3.1
			c-0.6-2.2-0.7-4.3-0.6-6.3c0.1-2,0.4-4,0.7-5.8c0.5-3.8,1.1-7.7,2.2-11.5c0.6-1.9,1.2-3.8,2.1-5.7c0.5-1,1.1-2,2-2.9
			c0.5-0.5,1-0.9,1.7-1.2c0.7-0.3,1.6-0.5,2.4-0.4L564.8,507.9z"/>
	</g>
	<g>
		<path class="st0" d="M710.8,276.1c-0.7,1-0.9,1.8-1,2.4c0,0.7,0,1.2,0,1.6c0,0.2,0,0.4,0.1,0.5c0,0.2,0.1,0.2,0,0.4
			c-0.1,0.3-0.2,0.7-0.3,1.1c-0.3,0.9-0.5,2.3-0.9,4.1l-1,5l-2,10c-0.6,3.3-1.2,6.5-1.6,9.6c-0.4,3.1-0.6,6-0.5,8.8
			c0.1,2.8,0.4,5.3,1,7.8c0.6,2.5,1.5,5.2,2.5,8.2c1.1,2.9,2.3,6.1,3.4,9.6c1.1,3.5,2.2,7.4,3,11.7c0.8,4.3,1,8.8,0.8,13.3
			c-0.2,4.5-0.9,9-2.2,13.4c-0.6,2.2-1.4,4.4-2.3,6.6c-0.9,2.2-2,4.3-3.2,6.3c-1.2,2-2.7,4.2-3.8,5.7c-1.1,1.5-1.9,2.5-2.3,3.1
			l-0.3,0.5c0,0,0-0.1-0.1,0c-0.1,0.3-0.4,1.3-0.7,3.1c-0.3,1.7-0.5,3.4-1.1,5c-0.6,1.6-1.4,3.2-2.7,4.7c-0.6,0.8-1.3,1.5-2.2,2.2
			c-0.4,0.4-0.8,0.7-1.3,1.1c-0.5,0.4-0.9,0.7-1.5,1.1c-2.1,1.4-4.6,2.7-8.2,3.9l-3.9-0.6l3.3-20.2c0.3-1.7,0.5-3.4,1.1-5.3
			c0.5-1.8,1.4-3.6,2.4-5.1c1-1.6,2.1-2.9,3.1-4.3c1-1.3,1.9-2.7,2.8-4.1c3.3-5.6,5.2-12,5.8-18.5c0.3-3.3,0.2-6.6-0.2-9.8
			c-0.4-3.3-1.1-6.5-1.9-9.8c-1.6-6.5-3.7-13.2-4.4-20.3c-0.3-3.5-0.3-7.1,0.1-10.6c0.4-3.5,1-7,1.8-10.3c1.6-6.8,3.8-13.2,5.8-19.8
			l1.5-4.9c0.5-1.6,1-3.3,1.8-5.1c0.4-0.9,0.9-1.7,1.5-2.5c0.6-0.8,1.4-1.6,2.3-2.2c0.9-0.6,1.9-1.1,3-1.4c1.1-0.3,2.3-0.3,3.5,0
			L710.8,276.1z"/>
	</g>
	<path class="st1" d="M612,467c0,0,42-13,48-29c2-5.3,7.2-7.5,13.1-12c5.9-5.2,12.6-4.9,17.6-6.7c5-1.8,8.4-3.3,7.8-5.3
		c-2-6,7.5-49,7.5-49c-3.6-2.1-7.9-60.8-5-63.5c2.9-2.7,8-31,11-31.5s-9-9.5-9-9.5s-9-19-3.5-17.5s19,5.5,18.5,4s5,5,5,5v-13
		c-1-3.8,10.9-0.4,14.5,7.5c2.6,5.7,5.5,4,5.5,4c-1-1.9,12.3,1,15,2c2.6,1,14.1,12.7,13.5,14.5c0,0,17,7,18,8.5s14.5,10,14.5,10
		c6.3,2.3,8.5,7.4,7.5,14.5c0,0-5,6-10,4s-7,4-9.5,2.5s-15-4.6-12-5c3.9-0.5-26,13.1-36.5,3c-8.4-8.1,5.5,65,5.5,65l4,60.5
		c-6.3,15.8-13.1,40.2-16.5,42.5c5,1.9,9.7,9,14.5,14.5l5.5,9.5l3,21h31c-3.8-5.5,9.4,4.6,5,5.5c-3.4,0.7,15.4-3.9,16,0
		c7.1,2.1,7.9,6.9,6,13c3.2,5.7,0.7,8.9-6,10.5l-35,3.5H762l-10-8l-53,8c0,0-56.5-2.5-56.5-6.5S621,542,621,542
		c-1.7,0.5-4.4,0.5,0,4.5c-4.7-3.7-7.6-3.1-9,0.5l-6,10v3l-10.5-6.5c-31.9,0.2-42-15.8-31.5-47C572,484.9,588.1,471.8,612,467z"/>
	<path class="st2" d="M728,456c-0.6,12.8,2.7,24.6,14.5,34.5c12.4,12.1,15.6,22.6,7,31"/>
	<path class="st2" d="M606.5,485.5c19.9-5.2,38.3-8,54-6c12.3,6,21,17.2,29.1,29.5c0.3,13,0.1,21.8-0.8,21
		c1.4,7.3-17.7,10.3-33.3,14"/>
	<path class="st2" d="M727.9,527.5c0,0,12.7-5.5,15.6-6c1.7-0.3,15.3,10,12.5,6c-1.4-2,12.3-2.7,14,0l25.5-4.5"/>
	<polyline class="st2" points="708.7,259.5 717,265.1 723.5,267.5 721,263.5 719,252.5 708.7,249.5 	"/>
	<path class="st3" d="M741.1,273.5c1.9,4.3,4.6,7.1,9.4,6.5l6-3.3C751.7,270.7,746.5,270.4,741.1,273.5z"/>
	<path class="st4" d="M710,294.7c0.4,0.3,0.8,0.6,1.2,0.8c1,0.5,2.2,0.5,3.1,1.1c1.3,0.9,1.4,2.7,1.4,4.3c0,1.2,0,2.4-0.5,3.5
		c-0.3,0.7-0.9,1.4-1.2,2.1c-0.4,0.9-0.4,2-0.9,2.9c-0.5,1.1-1.7,1.9-2.9,2.1c-1.2,0.2-2.5-0.1-3.6-0.8c-1.4-0.9-2.3-2.3-3.7-3.3
		c-0.9-0.6-2-1.1-2.5-2.1c-0.6-1.1,0-2.5,0.5-3.7C702.5,298.4,704.7,291.2,710,294.7z"/>
	<path class="st4" d="M720.5,308.2c0.9-0.4,1.7-1,2.5-1.5c1.6-1.1,2.8-1.6,1.4-3.2c-0.9-1-2.4-2-3.8-1.7c-1.4,0.4-2.2,1.9-2.7,3.1
		c-0.7,1.8-1.2,2.4-2.5,3.6C716.3,309.7,719.3,308.8,720.5,308.2z"/>
	<path class="st4" d="M717.1,320.7c2.9,2.8,6.3,5.8,10.3,5.9c0.1-1.3,0.2-2.6,0.8-3.8c0.5-1.2,1.6-2.2,2.9-2.4c0.3,0,0.6,0,0.9-0.2
		c0.3-0.2,0.5-0.6,0.5-1c0.1-1.3-1.1-2.3-2.1-3.1c-1.6-1.3-3.3-2.6-5.3-3.1c-1.9-0.5-6.3-1-8,0.4
		C714.5,315.2,715.1,318.8,717.1,320.7z"/>
	<path class="st4" d="M729.5,329.1c-0.4,0.8-0.7,1.8-0.2,2.5c0.3,0.5,1,0.7,1.6,0.6c0.6-0.1,1.2-0.4,1.7-0.7c0.7-0.4,1.4-0.9,2-1.4
		c1.8-1.4,2.4-4.5-0.1-5.5C731.4,323.3,730.4,327.1,729.5,329.1z"/>
	<path class="st4" d="M703.5,330.6c1.1,2.3,3.3,4.3,5.9,4.6c1.6,0.2,3.4-0.3,5,0.2c0.9,0.3,1.7,0.9,2.6,1.3c1.3,0.6,2.7,0.9,4.1,0.8
		c0.3,0,0.5-0.1,0.7-0.2c0.2-0.2,0.2-0.4,0.3-0.6c0.6-2.9,0.1-6.2-2.2-8c-1.4-1.1-3.3-1.5-4.7-2.7c-3.5-3-1.8-13-9-10.7
		C700.5,317.1,701.5,326.5,703.5,330.6z"/>
	<path class="st4" d="M723.3,341c0.4,0.8,1.4,1.1,2.2,1.3c1.3,0.4,2.7,1,3.3,2.3c0.1,0.3,0.2,0.6,0.5,0.7c0.2,0.1,0.4,0.1,0.6,0.1
		c0.8,0,1.6,0,2.4,0c0.3,0,0.6,0,0.8-0.2c0.2-0.1,0.3-0.3,0.4-0.6c1.8-3.6,0.6-8.3,1.1-12.2c-2-1-2.5,0.5-4.1,1.2
		c-1.2,0.5-2.2,0-3.4,0.1C725.1,334.2,722.3,339.1,723.3,341z"/>
	<path class="st4" d="M707.2,339.2c1.3,0.2,2.6,0.8,3.8,1.5c1.3,0.7,2.5,1.5,3.8,2.3c1.4,0.9,2.9,2.2,2.8,3.9c0,0.6-0.3,1.2-0.5,1.7
		c-0.5,1-1,2.1-1.4,3.1c-0.8,1.8-1.8,3.7-3.7,4.4c-1.7,0.6-3.6-0.2-5.4,0.3c-0.3,0.1-0.7,0.2-1,0.2c-0.4,0-0.8-0.4-1-0.7
		c-0.9-1.4-0.2-3.3-0.6-4.9c-0.2-0.9-0.7-1.7-1-2.6C701.7,345.2,702.8,338.7,707.2,339.2z"/>
	<path class="st4" d="M713.6,360.8c-0.3,0.7,0.1,1.5,0.8,1.9c0.7,0.4,1.5,0.4,2.2,0.2c2.7-0.5,5.3-2.4,8-1.7c0.8,0.2,1.6,0.7,2.4,1
		c1.5,0.5,3.1,0.4,4.7,0.3c1.2-0.1,2.6-0.2,3.5-1c1.3-1.1,1.3-3.1,1.3-4.8c0-1.2-0.2-2.5-1.1-3.1c-1-0.7-2.3-0.2-3.3-0.6
		c-1.6-0.7-0.8-1.5-1.6-2.7c-1.2-1.8-5.3-1.2-7.2-0.5c-1.9,0.7-3.1,2.3-4.1,4c-0.8,1.3-1.4,2.7-2.2,3.9
		C716.1,358.8,714.1,359.6,713.6,360.8z"/>
	<path class="st4" d="M735.4,368.5c-0.2,1-0.1,2,0.3,2.9c0.4,1,1.2,1.9,1.8,2.8c0.5,0.7,0.9,1.5,1.7,1.9c1.3,0.6,2.8-0.5,3.2-1.8
		c0.5-1.7-0.4-6.1-1.9-7.3C739,365.9,735.8,366.7,735.4,368.5z"/>
	<path class="st4" d="M717.6,370.5c-0.3,1.3-0.1,2.8,0.7,3.9c0.7,0.9,1.8,1.5,2.5,2.4c0.6,0.9,0.9,2,1.4,2.9
		c1.1,1.8,3.2,2.5,5.2,3.1c1.7,0.5,3.7,1,5.2,0c0.4-0.3,0.8-0.7,1.3-1c0.9-0.5,1.9-0.4,2.9-0.4c-0.6-3.7-2-7.4-3.9-10.6
		c-0.4-0.7-0.9-1.4-1.5-1.9c-1-0.7-2.2-0.9-3.3-1.1c-1.9-0.3-3.8-0.9-5.6-1.6C719.3,365.3,718.3,367.6,717.6,370.5z"/>
	<path class="st4" d="M714.1,367.6c1.4,1.7,2.2,4.2,1.3,6.2c-0.8,2-3,3.2-5.1,3.6c-1.3,0.3-2.8,0.3-3.6-0.6c-0.4-0.4-0.6-1-0.8-1.6
		c-0.2-0.6-0.5-1.2-0.5-1.8c0-0.8,0.4-1.5,0.7-2.2c0.7-1.5,1-3.2,0.8-4.9c-0.1-1-1.1-3.3,0-4.1C708.4,361,713.2,366.3,714.1,367.6z"
		/>
	<path class="st5" d="M708.4,400.5c0,0.3,0.1,0.7,0.2,0.9c0.2,0.3,0.6,0.5,1,0.7c2.4,1,5.1,1.5,7.7,1.3c2.3-0.1,4.6-0.7,6.9-0.7
		c2.3,0,4.8,0.9,6,2.9c-1.6-3.5-2.3-7.5-2.1-11.3c0-0.8,0.1-1.6-0.2-2.4c-0.3-0.6-0.8-1.1-1.3-1.6c-2.7-2.4-5.7-4.4-8.8-6.2
		c-2.4-1.4-5.6-4.3-8.2-1.9c-1.7,1.5-2.1,4.6-2,6.7C707.6,392.8,708,396.7,708.4,400.5z"/>
	<path class="st4" d="M740.3,389c-1.5,0.1-2.9-0.1-4.4,0c-1.5,0.2-3,0.7-3.8,1.9c-0.7,1-0.8,2.3-0.6,3.5c0.2,1.2,0.8,2.3,1.4,3.3
		c0.2,0.4,0.5,0.8,0.8,1.1c0.5,0.4,1.1,0.6,1.7,0.8c2.3,0.6,4.8,0.9,7.2,0.8c1.3,0,2.7-0.1,3.7,0.7c0.1-1.3,0.2-2.6,0.2-3.9
		c0-0.7,0-1.5-0.3-2.2c-0.3-0.7-0.7-1.2-1.2-1.8c-0.7-0.9-1.5-1.8-2.4-2.4c-2.3-1.5-5.3-1.3-8.1-1"/>
	<path class="st4" d="M735.7,405.7c-1-0.9-2.6-0.5-3.4,0.5s-0.8,2.5-0.4,3.7s1.2,2.3,2,3.3c1.4,1.7,2.7,3.5,4.1,5.2
		c0.5,0.6,0.9,1.2,1,1.9c0.2,1.3-0.8,2.5-1,3.8c-0.2,1.5,0.5,3,1.6,4c1.1,1,2.5,1.6,3.9,2.2c1.7,0.8,3.8,1.5,5.4,0.4
		c1.4-0.9,1.7-2.7,1.9-4.4c0.5-4.2,0.8-8.7-1.7-12.1c-1.4-1.9-3.4-3.1-5.4-4.3c-2.2-1.3-4.4-2.6-6.5-3.9c-1.7-1-3.5-2-5.4-1.9"/>
	<path class="st4" d="M707.4,404.7c0.7,1.3,1.5,2.7,2.9,3.3c0.3,0.1,0.6,0.2,0.8,0.4c0.4,0.3,0.5,0.8,0.7,1.3
		c0.2,0.8,0.4,1.6,0.6,2.3c0.3,1.2,0.6,2.5,0.3,3.7c-0.6,2.3-3.2,3.6-5.5,3.3s-4.3-1.8-5.8-3.6c-0.6-0.7-1.1-1.5-1.4-2.3
		c-1-2.7-0.1-8.2,1.1-10.8C702.8,398.3,706.3,402.6,707.4,404.7z"/>
	<path class="st4" d="M721.6,424.4c1.5,2,2.2,4.6,3.2,6.9c1,2.4,2.5,4.7,4.9,5.6c0.8,0.3,1.7,0.4,2.5,0c0.9-0.5,1.3-1.6,1.6-2.6
		c0.6-2.1,1-4.2,1.3-6.3c0.3-2.2,0.3-4.5-0.7-6.4c-1.1-2.2-3.4-3.6-5.6-4.8c-2.4-1.2-8.9-5.4-11.5-3.1
		C713.4,417,719.9,422.2,721.6,424.4z"/>
	<path class="st4" d="M731.8,441.8c-1.2,2.1-1.3,4.7-1.4,7.1c-0.1,2.1-0.1,4.1-0.2,6.2c-0.1,1.4-0.1,2.9,0.4,4.3
		c0.8,2.4,3.1,3.9,5.2,5.3c0.4,0.2,0.8,0.5,1.2,0.3c0.4-0.1,0.6-0.5,0.7-0.9c1.5-4.4-0.1-9.8,2.6-13.7c0.8-1.2,2-2.1,3-3.2
		c1-1.1,1.8-2.4,1.8-3.9c-0.1-1.6-1.3-3.1-2.7-3.8C739,437.7,733.9,438.1,731.8,441.8z"/>
	<path class="st4" d="M709.3,429.3c-0.9,1.4-1.1,3.1-1.1,4.8c0,2,0.3,4.1,1.6,5.7c1.7,2,4.5,2.6,7.1,2.9s5.4,0.8,7.2,2.6
		c0-2.8,0.1-5.6,0.1-8.4c0-1.2,0-2.4-0.4-3.6c-0.8-2.2-2.9-3.6-5.1-4.4C715.5,427.7,711.7,425.4,709.3,429.3z"/>
	<path class="st4" d="M665.4,437.1c-0.9,0.8-1.9,1.5-2.6,2.4s-1.1,2.3-0.5,3.4c0.8,1.2,2.5,1.3,3.9,1.2c1.1,0,2.2-0.1,3.2-0.5
		c0.7-0.3,1.4-0.8,2-1.3c1.2-1,2.4-2,3.6-3.1c2.2-2,7-8.2,1.3-9.1C671.3,429.2,668.5,434.2,665.4,437.1z"/>
	<path class="st4" d="M697,419.7c-3.1,2.1-7.6,1.6-10.3,4.2c-1.2,1.1-1.9,2.7-2.5,4.2c-0.5,1.2-0.9,2.5-0.8,3.8
		c0.1,1.3,0.7,2.6,1.8,3.2c0.7,0.4,1.6,0.4,2.4,0.4c1.6,0,3.3,0.1,4.9,0.1c0.6,0,1.3,0,1.9-0.2c0.7-0.2,1.3-0.6,1.9-1.1
		c2.5-1.8,5-3.5,7.4-5.3c0.3-0.2,0.7-0.5,0.8-0.8c0.2-0.3,0.2-0.7,0.2-1.1c-0.1-3.4-2.1-6.5-4-9.3"/>
	<path class="st4" d="M710.2,453.5c-1.3,1.1-2.8,2-3.4,3.6c-0.5,1.1-0.5,2.4-0.5,3.6c0,2.5,0,4.9,0.1,7.4c0,0.4,0,0.8,0.2,1.1
		c0.3,0.5,1,0.6,1.6,0.7c0.7,0.1,1.4,0.2,2.2,0.2c0.8,0.1,1.8,0.2,2.5-0.2c0.7-0.4,1.1-1.1,1.5-1.8c1.8-3.1,4.2-5.8,6.9-8
		c0.8-0.6,1.6-1.2,2.1-2c1.5-2.6,1-8.5-2.2-9.6C716.8,446.9,713.1,451.2,710.2,453.5z"/>
	<path class="st4" d="M692.4,467.7c-4.3-0.4-8.7,0.7-12.3,3.1c-1.2,0.8-2.3,1.7-2.8,3c-0.4,1-0.4,2-0.5,3.1c0,1.9,0,3.8,0.6,5.5
		c1.3,3.7,4.7,6.1,8,8.2c0.9,0.6,1.8,1.2,2.9,1.4c3,0.7,5.9-1.9,7.3-4.7c1.4-2.8,2.1-6,4.2-8.3c1.4-1.7,3.5-3.1,3.6-5.3
		c0.1-1.8-1.3-3.3-2.6-4.5c-0.6-0.6-1.2-1.1-1.9-1.4c-0.8-0.3-1.7-0.4-2.5-0.4c-2.7,0-5.3,0-8,0.2"/>
	<path class="st4" d="M728,465.7c-1.3-1-3.4-0.7-4.5,0.6c-0.4,0.5-0.7,1.1-0.9,1.7c-0.9,2.2-1.9,4.5-2.8,6.7
		c-0.5,1.1-0.9,2.4-0.5,3.5c0.3,0.8,1,1.4,1.8,1.8c4.2,2.4,9.7,1.2,14,3.2"/>
	<path class="st4" d="M699.8,485.1c-0.5,1.1-0.5,2.4-0.6,3.6c-0.3,3.4-1.8,6.6-2.3,9.9c-0.5,3.4,0.3,7.3,3.3,9
		c1,0.6,2.1,0.8,3.3,0.9c4.7,0.4,9.6-2.2,12-6.3c1.5-2.5,2-5.4,2.4-8.3c0.3-2.3,0.5-4.7,0-7c-0.5-2.3-1.6-4.5-3.6-5.8
		C710.6,478.6,701.7,481,699.8,485.1z"/>
	<path class="st4" d="M722.7,497.3c-0.8,1.4-1.9,2.5-2.4,3.9c-0.9,2.6,0.5,5.4,1.9,7.9c0.3,0.5,0.6,1,1,1.4c1.3,1.1,3.2,0.7,4.7,0.1
		c4.1-1.6,7.9-4.3,12.3-4.8c0.9-0.1,1.9-0.1,2.7-0.4c0.9-0.3,1.7-1,1.8-1.9c0.1-0.8-0.2-1.5-0.6-2.2c-2.9-4.6-7.9-7.1-12.3-10
		c-1.9-1.2-3.9-3.3-6-1.4C724,491.7,724,495.1,722.7,497.3z"/>
	<path class="st2" d="M749.5,521.3c-0.1-2.6-0.3-5.1-0.4-7.7c0-0.7-0.1-1.4-0.6-1.9c-0.5-0.5-1.3-0.6-2-0.7
		c-6.1-0.4-12.2,0.7-17.7,3.3c-0.8,0.4-1.7,0.8-2.3,1.5c-1.3,1.4-1.4,3.6-0.3,5.1c1.6,2.1,4.8,2.2,6.8,4"/>
	<path class="st4" d="M698.8,522.5c-2.2,1.9-2.9,5.4-1.6,8c0.2,0.3,0.4,0.7,0.7,0.9c0.3,0.1,0.7,0.1,1,0.1c3.5-0.1,7.1-0.2,10.3-1.6
		c1.3-0.6,2.6-1.4,3.9-1.8c2-0.6,4.2-0.4,6.2-1c0.6-0.2,1.2-0.4,1.5-0.9c0.2-0.3,0.3-0.7,0.3-1.1c0.3-2.8-1.1-5.5-2.4-8.1
		c-1.9-3.7-7-4.1-10.7-2.7c-1.5,0.6-2.6,1.8-3.7,2.9C702.6,519.3,700.8,520.8,698.8,522.5z"/>
	<path class="st4" d="M602.1,488.3c-1.4,0.7-2.7,1.7-3.4,3.1s-0.5,3.3,0.7,4.4c1.2,1.1,3.1,1.1,4.7,1c4.2-0.2,8.5-0.4,12.7-0.7
		c2.3-0.1,4.5-0.2,6.8-0.4c0.3,0,0.5,0,0.7-0.2c0.4-0.3,0.4-0.8,0.4-1.3c0-1.7,0-3.3,0-5c0-0.5,0-1.1-0.2-1.6
		c-0.4-0.8-1.2-1.3-2-1.7c-1.4-0.7-2.9-1.3-4.5-1.7c-3.6-0.7-7.2,0.5-10.5,2s-6.5,3.4-10,4.2"/>
	<path class="st4" d="M633.2,468c-1.1,0.6-1.9,2.2-1.2,3.3c0.7,1,2.1,1.1,3.3,1.1c2,0,4.4,0.3,6.4-0.2c1.3-0.3,1.6-0.5,1.5-2.1
		c-0.1-0.7-0.2-1.5-0.8-2C640.9,466.6,634.8,467.1,633.2,468z"/>
	<path class="st4" d="M658.8,503.9c0,1.6,0,3.4,1.2,4.4c0.7,0.6,1.8,0.8,2.7,0.9c3.1,0.4,6.1,0.8,9.2,1.2c1.4,0.2,3,0.3,4.2-0.4
		c1.4-0.9,1.9-2.9,1.5-4.5c-1.3-5.7-6.2-7.6-11-9.5C661.1,493.5,658.9,499.2,658.8,503.9z"/>
	<path class="st4" d="M667.5,518.2c-1.3-0.2-2.6-0.3-3.8,0.2c-1.1,0.4-2,1.4-2.3,2.5s-0.1,2.4,0.5,3.4c0.5,0.8,1.3,1.3,2.1,1.9
		c2.2,1.5,4.5,3.1,7.2,3.7c0.5,0.1,1.1,0.2,1.6,0.1c0.8-0.2,1.4-0.9,1.9-1.6c1.2-1.9,1.9-4.3,1.8-6.6c0-0.5-0.1-1-0.3-1.4
		c-0.4-0.9-1.3-1.4-2.3-1.5c-1.1-0.2-2.1,0.3-3.1,0.2C669.7,518.9,668.6,518.3,667.5,518.2z"/>
	<path class="st4" d="M648.5,534.6c-1,1.2-2.2,2.7-1.7,4.1c0.4,1,1.4,1.6,2.5,1.8c1.1,0.2,2.1,0.1,3.2,0c1.1,0,2.1,0,3.2,0.2
		c1.2,0.2,2.6,0.5,3.6-0.3c0.4-0.4,0.7-1,0.9-1.5c1.4-3.4,0.1-5.5-3.5-6.1C653.5,532.4,650.8,532.1,648.5,534.6z"/>
	<path class="st4" d="M576.9,510.4c-0.7-0.5-1.4-0.9-2.3-0.9c-0.8-0.1-1.7,0.3-2.2,1c-0.3,0.4-0.4,1-0.4,1.5c0,1.2,0.4,2.5,1.4,3.1
		c0.4,0.3,0.9,0.4,1.4,0.5c1,0.3,2,0.5,3,0.8c0.3,0.1,0.7,0.2,0.9,0c0.2-0.2,0.3-0.4,0.4-0.7c0.2-0.8,0.5-1.7,0.4-2.6
		s-0.5-1.8-1.3-2.1c-0.7-0.3-1.5-0.2-2.2-0.5"/>
	<path class="st4" d="M586.6,494.5c-1.1,1.2-2.1,2.7-1.9,4.4c0.3,2,2.2,3.2,4.1,3.9c1,0.4,2.4,0.6,3.1-0.3c0.4-0.5,0.5-1.2,0.5-1.9
		c0.1-1.6,0.7-5.3-0.2-6.9C590.9,491.6,587.9,493.1,586.6,494.5z"/>
	<path class="st4" d="M594.3,511.7c-1,1-1.8,2.2-2.1,3.5c-0.6,2.2,0,4.5,1.1,6.5c0.7,1.2,1.6,2.3,2.7,3.1c1.9,1.2,4.2,1.4,6.5,1.5
		c0.8,0,1.6,0.1,2.3-0.4c0.9-0.6,1.1-1.8,1.1-2.9c0.1-1.7,0.2-3.4,0.2-5.1c0-2.7,0-7.8-3.1-9.1C600.1,507.7,596.2,509.7,594.3,511.7
		z"/>
	<path class="st4" d="M614.4,510.3c0.7,1.5,1.7,3.1,1.7,4.8c0,0.6-0.1,1.2,0.4,1.6c0.4,0.4,1.1,0.3,1.6,0.1c1.3-0.4,2.7-0.8,3.5-2
		c1.6-2.7,0.5-9.6-2.2-11.5c-1.4-1-3.2-0.5-4.5,0.6C612.9,505.7,613.4,508.2,614.4,510.3z"/>
	<path class="st4" d="M563.6,529c0.4,1.7,1.4,3.2,2.4,4.6c1.1,1.4,2.5,2.9,4.3,3.2c0.2,0,0.5,0.1,0.7,0c0.3-0.1,0.5-0.4,0.7-0.6
		c1.7-2.5,2-5.8,0.9-8.6c-0.9-2.1-3.4-5.2-5.9-5.3C563.8,522.2,563.2,526.9,563.6,529z"/>
	<path class="st4" d="M579.9,547.1c2.1,2.4,4.8,4.2,7.7,5.4c0.9,0.4,1.9,0.7,2.9,0.6c1-0.1,2-0.5,2.5-1.4c0.3-0.5,0.4-1.1,0.4-1.7
		c0.2-2.2,0-4.5-1.4-6.2c-1.8-2.2-6.9-4.9-9.8-4.4C578.2,540,577.5,544.3,579.9,547.1z"/>
	<path class="st4" d="M640.4,551.3c-0.5,0.1-0.9-0.3-1.2-0.5c-2.1-1.4-4.7-1.5-7.2-1.5c-1.2,0-2.6,0.1-3.4,1c-1,1.2-0.3,3,0.6,4.2
		c1,1.2,2.3,2.2,3.6,3.1c1.3,0.8,2.7,1.6,4.3,1.9c1.5,0.3,3.2,0.1,4.5-0.8c1.2-0.8,1.9-2.2,2-3.7s-0.3-2.9-1.2-4.1
		c-1.8,0-3.7,0-5.5,0"/>
	<path class="st4" d="M708,536.5c-0.9,0.5-1.7,1.5-1.7,2.5c0,1,0.7,1.8,1.4,2.5c2.7,2.5,6.5,3.9,10.2,3.7c3.2-0.2,1.9-6.3,0.2-7.9
		C715.8,535.2,710.5,535,708,536.5z"/>
	<path class="st4" d="M688.4,541.2c-0.6,0.7-0.7,1.6-0.7,2.5c-0.1,1.1-0.1,2.3,0.4,3.2c0.5,0.9,1.5,1.4,2.5,1.7
		c1,0.2,2.1,0.2,3.1,0.2c0.7,0,1.3-0.1,2-0.3c0.5-0.2,0.9-0.5,1.4-0.8c1.2-1,2.3-2.3,2.7-3.9c0.4-1.6-0.1-3.4-1.3-4.3
		c-0.6-0.5-1.3-0.7-2-1c-1-0.3-2-0.7-3-0.6c-1.3,0-1.7,0.7-2.5,1.4C690.1,539.8,689,540.4,688.4,541.2z"/>
	<path class="st4" d="M724.1,531.3c-0.2,0.2-0.2,0.5-0.2,0.7c0,2.1,1.1,4.1,2.8,5.3c3.5,2.6,10.2,0.9,8.3-4.4
		c-0.6-1.6-2-2.4-3.6-2.6C729.9,530.1,725.1,530.2,724.1,531.3z"/>
	<path class="st4" d="M750.6,531.6c-0.9-0.1-1.8-0.3-2.7-0.1c-0.9,0.1-1.8,0.6-2.3,1.3c-0.5,0.8-0.5,1.8-0.4,2.8
		c0,0.4,0.1,0.9,0.3,1.3c0.3,0.8,1.1,1.3,1.8,1.6c1.3,0.5,2.7,0.5,4,0.4c1.6,0,3.2-0.1,4.6-0.7c0.2-0.1,0.5-0.2,0.6-0.4
		c0.2-0.2,0.2-0.5,0.2-0.8c0.1-0.9,0.1-1.8-0.3-2.6c-0.7-1.3-2.3-1.9-3.8-1.9c-1.5,0-3,0.3-4.4,0"/>
	<path class="st4" d="M779.6,536.9c-1.7,0-3.5-0.2-5.2,0c-1.7,0.2-3.5,0.7-4.7,2s-1.6,3.3-0.6,4.8c0.6,0.9,1.7,1.4,2.7,1.8
		c1.9,0.6,3.8,0.7,5.8,0.8c1.5,0,3.1,0,4.5-0.4c2.9-0.9,4.2-3.5,3.7-6.4C785.2,536.1,782.3,536.9,779.6,536.9z"/>
	<path class="st4" d="M804.1,542.2c0.5,0,0.9,0,1.3-0.2c0.6-0.2,1.1-0.6,1.5-1c1.9-2,2.6-4.8,2.6-7.5c0.1-3.2-1-4.9-4.3-5.2
		c-5.2-0.4-6.7,4.5-6.6,9C798.7,540.5,801,542.2,804.1,542.2z"/>
	<path class="st2" d="M727.7,291c2.2,5.3,7.3,9.1,12.8,10.8c5.5,1.7,11.4,1.8,17.1,1.5c1.5-0.1,3-0.2,4.4-0.5
		c1.6-0.3,3.1-0.9,4.6-1.4c3.2-1.1,6.5-1.8,9.9-2.6"/>
	<path class="st2" d="M785.3,299c1.4-0.4,2.9-0.7,4.4-0.7c0.4,0,0.8,0,1.1,0.2c0.3,0.1,0.5,0.4,0.7,0.6c1,1.1,2.2,2.1,3.5,2.7
		s2.9,0.9,4.3,0.5"/>
	<path class="st2" d="M741.2,268.7c1.6-1.2,3.2-2.3,5.1-3c1.9-0.7,4-0.8,5.8,0.1c1.6,0.8,2.8,2.4,3.5,4.1"/>
	<path class="st2" d="M737.9,279.3c0.4,3.7,3.4,7,7,7.9c1,0.2,2.1,0.3,3.2,0.3c0.8,0,1.6,0,2.4-0.3c1.9-0.7,2.8-2.9,3.5-4.9"/>
	<path class="st6" d="M696,420.3c1.5-1.2,3.3-1.9,5.2-2.1"/>
	<path class="st4" d="M740.7,481.6c0.2,0.8,0.6,1.6,1,2.3c0.6,1.1,1.4,2.4,2.7,2.6c0.9,0.2,1.8-0.1,2.7-0.5c0.5-0.2,1.1-0.4,1.5-0.8
		c0.4-0.4,0.7-1,0.6-1.5c-0.2-0.9-1.4-1.3-2.2-1.7c-1.4-0.7-2.3-2.1-2.9-3.5c-0.3-0.6-0.5-1.2-1-1.6
		C740.6,475.3,740.4,480.5,740.7,481.6z"/>
	<path class="st4" d="M684.5,448c0.4,0.6,1.1,0.9,1.7,1.2c1.5,0.8,2.8,1.8,4,3c1,1.1,1.9,2.3,3.3,2.9c1.3,0.6,3.2,0.5,3.9-0.8
		c0.3-0.6,0.3-1.2,0.5-1.8c0.9-2.5,3.1-3.2,1.6-6.1c-1.1-2.1-3-4.2-5.4-4.5c-2-0.2-4.3,0.4-6.3,0.5
		C685.3,442.6,682.5,445.5,684.5,448z"/>
	<path class="st4" d="M667.4,452.7c-0.3,0-0.7,0-1,0.2c-0.2,0.2-0.4,0.4-0.5,0.6c-0.9,1.9-0.8,4.1-0.3,6c0.6,2,1.7,3.8,2.9,5.4
		c0.9,1.1,1.8,2.3,3.1,2.9c1.3,0.7,2.9,0.8,4.1-0.1c1.1-0.8,1.6-2.3,2.6-3.3c0.8-0.8,1.9-1.3,2.4-2.4c0.6-1.4-0.3-3.1-1.6-4
		c-1.2-1-2.8-1.5-3.9-2.6C672.9,453.2,670.7,452.9,667.4,452.7z"/>
	<path class="st2" d="M757.5,564c0.7-0.4,0.9-1.3,1-2.1c0.4-2.2,1.6-4.2,2.7-6.2c1-1.8,2-3.5,3-5.3"/>
	<path class="st7" d="M766.3,567.4c2.8,0.2,5.7-0.3,8.4-1c2-0.5,4-1,5.7-2s3.3-2.6,3.8-4.5c0.6-2,0-4.3-1.7-5.4
		c-0.8-0.5-1.7-0.8-2.6-1c-4.5-1.2-9.1-2.3-13.7-3.3c-0.6-0.1-1.2-0.3-1.8-0.1c-1.2,0.3-1.9,1.4-2.4,2.5c-1.3,2.8-3.7,7.6-3.4,10.7
		C759,566.2,763.8,567.3,766.3,567.4z"/>
	<path class="st4" d="M613.8,470.9c-1.3,0-2.6,0-3.7,0.7c-1.3,0.8-1.8,2.9-0.8,4.1c0.9,1.1,2.5,1.1,4,1.4c2.3,0.4,4.5,1.5,6.8,2
		c0.4,0.1,0.9,0.2,1.3,0c0.6-0.2,0.9-0.9,1.1-1.5C624.1,471.4,618.1,471,613.8,470.9z"/>
	<path class="st4" d="M588.9,480.3c-1.8,0.4-3.5,1.5-4.1,3.1c-0.3,0.8-0.4,1.7-0.4,2.6c0,1.3,0.1,2.7,1.1,3.5
		c0.9,0.8,2.2,0.9,3.5,0.9c1.2,0,2.3-0.1,3.5-0.4c1.1-0.3,2.2-0.9,2.9-1.9c0.8-1.1,0.9-2.4,1.1-3.7c0-0.4,0.1-0.8,0-1.1
		C596.1,479.7,591.6,479.7,588.9,480.3z"/>
	<path class="st4" d="M642.8,456.4c-0.3,0.1-0.6,0.2-0.7,0.5c-0.1,0.2-0.1,0.4-0.1,0.6c0.2,1.8,1.8,3.1,2.9,4.5
		c0.6,0.8,1.1,1.7,1.7,2.5c0.6,0.8,1.4,1.5,2.4,1.6c1.7,0.3,3.2-1,4.4-2.1c1.1-1,2.2-2.1,3.3-3.1c0.4-0.3,0.7-0.7,0.7-1.2
		c0-0.4-0.3-0.8-0.6-1.1c-0.8-0.9-1.7-1.9-2.9-1.9c-1.8,0-2.6-1.1-4.6-1.1C647,455.4,644.9,455.7,642.8,456.4z"/>
	<path class="st4" d="M613.8,520.8c-1.2-0.1-2.6,0.1-3.4,1c-0.8,0.8-1.1,2.1-1,3.3c0.1,1.2,0.6,2.3,1,3.4c0.1,0.3,0.2,0.6,0.5,0.8
		c0.3,0.3,0.7,0.3,1.1,0.3c2,0.1,4.2,0.2,5.5-1.3c0.8-0.8,1-2,1.3-3.1c0.1-0.2,0.1-0.5,0-0.7C618.4,522.4,615.8,521,613.8,520.8z"/>
	<path class="st4" d="M636,486.1c-1.1,0-2.5,0.1-3.1,1.1c-0.4,0.7-0.3,1.5-0.2,2.3c0.1,1.3,0.3,2.5,0.4,3.8c0.1,1,0.3,2.1,1.1,2.7
		c0.3,0.3,0.8,0.4,1.2,0.5c2,0.4,3.9-1,5.5-2.3c0.5-0.4,0.9-0.8,1.3-1.3C645.4,488.1,639.6,486.1,636,486.1z"/>
	<path class="st4" d="M655.9,487.7c0.3,0.5,1,0.7,1.6,1c1.1,0.5,2,1.3,2.9,2c4.5,3.8,6.1-4,3-6.4
		C661.1,482.7,653.3,483.6,655.9,487.7z"/>
	<path class="st1" d="M606,560l7.5-15.3l5.4,1.4l-1.1-3.9l24-0.8l0.6,2.1L699,550c18.9-4.5,36.9-7.6,53-8c6.2-1.9,9.4,3,12.5,8.2
		l-6,11.7C710.2,570.2,659.1,569.2,606,560z"/>
</g>
</svg>
